<svg xmlns="http://www.w3.org/2000/svg" x="0px" y="0px" viewBox="0 0 452.253 452.253" style="enable-background:new 0 0 452.253 452.253;">
<g transform="rotate(-30 0 0) translate(-135, 85)">
	<path d="M313.126,296.369h-174c-3.145,0-4.95,2.097-5.345,4.174c-0.395,2.078,0.517,4.691,3.444,5.844l60.901,23.972v115.894
		c0,3.309,2.691,6,6,6h44c3.309,0,6-2.691,6-6V330.359l60.902-23.973c2.926-1.153,3.837-3.766,3.442-5.844
		C318.077,298.465,316.271,296.369,313.126,296.369z"/>
	<path d="M226.126,0C138.72,0,67.609,71.111,67.609,158.518c0,40.386,15.199,78.856,42.794,108.324
		c1.188,1.271,3.25,2.125,5.13,2.125h221.719c0.973,0,2.85-0.26,4.482-2c27.671-29.486,42.911-68,42.911-108.448
		C384.644,71.111,313.533,0,226.126,0z M276.628,199.592c-20.922,0-37.882-16.96-37.882-37.882c0-20.922,16.96-37.882,37.882-37.882
		c20.922,0,37.882,16.961,37.882,37.882C314.511,182.632,297.55,199.592,276.628,199.592z"/>
</g>
</svg>
